<?xml version="1.0" encoding="UTF-8" standalone="no"?>
<!-- Created with Inkscape (http://www.inkscape.org/) -->

<svg
   width="132.72163mm"
   height="123.54927mm"
   viewBox="0 0 132.72164 123.54927"
   version="1.1"
   id="svg1"
   xml:space="preserve"
   sodipodi:docname="editorial.svg"
   inkscape:version="1.4.3 (0d15f75042, 2025-12-25)"
   xmlns:inkscape="http://www.inkscape.org/namespaces/inkscape"
   xmlns:sodipodi="http://sodipodi.sourceforge.net/DTD/sodipodi-0.dtd"
   xmlns="http://www.w3.org/2000/svg"
   xmlns:svg="http://www.w3.org/2000/svg"><sodipodi:namedview
     id="namedview1"
     pagecolor="#ffffff"
     bordercolor="#000000"
     borderopacity="0.25"
     inkscape:showpageshadow="2"
     inkscape:pageopacity="0.0"
     inkscape:pagecheckerboard="0"
     inkscape:deskcolor="#d1d1d1"
     inkscape:document-units="mm"
     inkscape:zoom="1.7858355"
     inkscape:cx="234.90405"
     inkscape:cy="227.34456"
     inkscape:window-width="2560"
     inkscape:window-height="1014"
     inkscape:window-x="0"
     inkscape:window-y="0"
     inkscape:window-maximized="1"
     inkscape:current-layer="g1"
     inkscape:export-bgcolor="#ffffff00"><inkscape:page
       x="6.159538e-22"
       y="-2.8833661e-22"
       width="132.72163"
       height="123.54926"
       id="page1"
       margin="0"
       bleed="0" /></sodipodi:namedview><defs
     id="defs1" /><g
     inkscape:label="Capa 1"
     inkscape:groupmode="layer"
     id="layer1"
     transform="translate(-44.131289,-42.764817)"><g
       id="g1"
       transform="translate(0.36576351,-22.67734)"><path
         style="fill:#ffffff;fill-opacity:1;stroke-width:1.20343"
         d="m 107.94045,188.87718 c -2.92723,-0.37253 -3.99325,-0.84697 -5.8511,-2.60404 l -1.71722,-1.62406 -27.745795,-0.0688 -27.745793,-0.0688 -0.557215,-0.68284 c -0.524828,-0.64315 -0.557216,-3.29717 -0.557216,-45.66348 0,-48.552276 -0.08043,-46.212542 1.643843,-47.82326 1.049487,-0.980358 2.356488,-1.458328 4.565123,-1.669439 l 1.91045,-0.182606 0.374149,-1.515861 c 0.718613,-2.911419 2.141274,-4.352407 4.82747,-4.889647 2.441739,-0.488349 16.142278,1.053243 22.69431,2.553576 6.753561,1.546482 13.602313,4.103312 18.591705,6.940808 l 2.547269,1.44866 0.0963,1.631719 c 0.053,0.897464 0.0377,1.631737 -0.034,1.631737 -0.0716,0 -1.332805,-0.68577 -2.802723,-1.523951 -9.917972,-5.655505 -22.052433,-8.789388 -36.742261,-9.489211 -4.185821,-0.199414 -4.506271,-0.17277 -5.253739,0.436911 l -0.796033,0.649283 -0.08296,43.710421 c -0.04705,24.7921 0.03803,43.83144 0.196587,43.98999 0.160465,0.16046 2.162586,0.002 4.69989,-0.37023 13.848612,-2.03579 25.115832,-1.67315 34.754575,1.11858 4.949735,1.4336 11.103694,4.75973 13.422814,7.25481 1.16164,1.24978 1.99228,1.05375 4.51683,-1.06596 9.14525,-7.67868 26.55929,-10.38001 47.24865,-7.32939 3.40951,0.50273 4.19545,0.53617 4.45771,0.18966 0.17938,-0.23699 0.30494,-2.28366 0.28757,-4.6873 -0.0169,-2.34663 -0.0529,-21.89894 -0.0795,-43.44958 -0.0417,-33.423522 -0.11566,-39.273813 -0.50413,-39.801043 -0.42117,-0.571676 -0.82151,-0.612036 -5.33334,-0.537648 -14.21175,0.234288 -27.7933,3.847678 -38.54966,10.256175 l -1.19405,0.711391 9.9e-4,-1.703093 9.9e-4,-1.703093 3.10279,-1.643997 c 5.58069,-2.95691 11.88396,-5.286926 17.90878,-6.620002 1.31344,-0.290618 2.96121,-0.655072 3.6617,-0.809903 2.30225,-0.508868 8.50991,-1.246198 13.55348,-1.609853 5.53888,-0.399368 6.92409,-0.209543 8.5686,1.174221 1.24485,1.04747 1.61279,1.750346 1.8731,3.57812 l 0.20988,1.4737 2.06664,0.181788 c 2.69587,0.237144 4.30301,1.033115 5.35734,2.653373 l 0.84863,1.304149 0.0851,44.895585 c 0.0612,32.32196 -0.0136,45.1344 -0.26796,45.74833 -0.1942,0.469 -0.59071,0.94657 -0.88115,1.06125 -0.29043,0.11469 -12.88518,0.18998 -27.98832,0.16733 l -27.46027,-0.0411 -1.41601,1.45697 c -0.7788,0.80134 -2.07548,1.7487 -2.88154,2.10524 -1.81487,0.80281 -5.12631,1.17358 -7.63265,0.85461 z m -57.437803,-8.0595 c 15.152025,-3.18734 32.657882,-4.01218 43.412799,-2.04553 5.702895,1.04284 5.458426,1.00937 4.935331,0.67548 -0.727432,-0.46431 -4.980965,-1.83648 -7.482603,-2.41383 -8.97919,-2.07236 -20.600182,-2.0102 -34.139197,0.18259 -3.429438,0.55543 -4.299118,0.60672 -4.696525,0.27688 -0.433593,-0.35984 -0.487719,-5.1532 -0.487719,-43.19171 V 91.514612 l -1.034828,9.85e-4 c -0.569157,9.75e-4 -1.583588,0.154151 -2.254294,0.3404 -2.263407,0.628488 -2.123823,-2.346676 -2.123823,45.268343 0,38.19063 0.05302,42.84102 0.495669,43.473 0.589524,0.84165 0.458304,0.83312 3.37519,0.21954 z m 122.473623,0.10602 c 0.29344,-0.29345 0.38208,-10.4705 0.38208,-43.86951 0,-48.311202 0.17923,-44.557712 -2.15864,-45.207005 -2.01473,-0.559546 -2.93449,-0.439679 -2.94529,0.383861 -0.005,0.394022 -0.002,19.581254 0.006,42.638274 0.0135,37.89912 -0.0335,41.97045 -0.49096,42.42793 -0.63278,0.6328 -0.60528,0.6334 -4.96625,-0.10976 -6.80088,-1.15897 -12.0743,-1.61227 -18.73813,-1.61076 -8.29618,0.002 -13.70509,0.75074 -19.90053,2.75518 -3.41505,1.1049 -4.2077,1.76518 -1.27363,1.06099 2.29615,-0.55109 7.47271,-1.25817 10.6118,-1.44948 1.69388,-0.10325 3.79617,-0.23362 4.67181,-0.28975 2.54044,-0.16285 13.55892,0.42595 17.94923,0.95915 3.49842,0.42487 5.94165,0.80906 13.21543,2.07806 0.85397,0.14898 1.6301,0.34829 1.72471,0.44291 0.31209,0.31209 1.52357,0.17904 1.91268,-0.21007 z m -66.3245,-3.58584 c -3.62428,-2.72202 -10.52515,-5.64989 -15.562804,-6.60292 -1.234963,-0.23362 -2.262624,-0.60423 -2.35702,-0.85001 -0.209495,-0.54547 0.562773,-9.39115 0.862187,-9.8756 0.121041,-0.19586 2.289124,-0.70837 4.817959,-1.13891 2.528832,-0.43054 6.245658,-1.06402 8.259588,-1.40772 5.13319,-0.87606 5.70647,-0.90955 6.05775,-0.35389 0.3384,0.53525 0.37575,17.75217 0.0437,20.14437 l -0.21091,1.51954 z m 4.61248,-4.53069 c -0.002,-3.29393 -0.0943,-8.28298 -0.20417,-11.08679 -0.16256,-4.14946 -0.11721,-5.16628 0.2436,-5.46576 0.68937,-0.57212 8.77266,-2.0385 8.90545,-1.61554 0.0136,0.0438 0.13216,1.40878 0.26316,3.03332 0.25432,3.15397 0.62434,3.95809 1.55146,3.3716 0.47271,-0.29903 0.53284,-0.78726 0.4354,-3.53546 -0.0688,-1.93978 0.0135,-3.26678 0.21031,-3.38839 0.17786,-0.10987 1.78977,-0.49383 3.58202,-0.85311 2.32475,-0.46604 3.35674,-0.55512 3.60104,-0.31084 0.4037,0.40373 1.78325,16.21012 1.46969,16.83949 -0.11781,0.2366 -2.12976,0.92083 -4.47086,1.5205 -4.6867,1.20048 -9.44711,3.28699 -12.76594,5.59534 -1.11138,0.77301 -2.1998,1.51328 -2.4187,1.64503 -0.31273,0.18823 -0.39895,-1.04365 -0.40246,-5.74939 z M 93.338869,156.90165 c -0.08436,-0.0844 -0.09519,-0.68173 -0.02383,-1.32741 0.07124,-0.64568 0.265596,-3.54723 0.431803,-6.44788 0.166219,-2.90066 0.392043,-5.508 0.501832,-5.79411 0.20912,-0.54497 0.264223,-0.55878 7.945416,-1.99006 2.45173,-0.45683 6.66254,-1.26082 9.35736,-1.78662 2.69483,-0.5258 5.0147,-0.83966 5.15528,-0.69745 0.26317,0.26621 0.93015,9.03744 0.93015,12.23208 v 1.79532 l -4.53732,0.85154 c -8.43043,1.58223 -11.35101,2.09607 -11.91379,2.09607 -0.32681,0 -0.42452,-0.76964 -0.42452,-3.34331 0,-3.31404 -0.006,-3.34328 -0.761956,-3.34328 -0.956599,0 -1.148501,0.50312 -1.148501,3.01112 0,2.85271 -0.28854,3.99966 -1.079607,4.29127 -0.84782,0.31255 -4.227291,0.65772 -4.432295,0.45272 z m 26.378741,-5.28744 c -0.33223,-1.4854 -0.71357,-12.82686 -0.44285,-13.17105 0.3705,-0.47102 5.69618,-1.51839 6.0077,-1.1815 0.22188,0.23998 0.6035,4.03041 1.1389,11.31247 0.23267,3.16425 0.6136,2.78063 -3.39763,3.42161 -2.88853,0.46157 -3.1236,0.43445 -3.30612,-0.38153 z m -35.991238,-8.81027 c -1.401001,-0.69128 -3.415488,-1.96022 -4.476641,-2.8199 -1.751392,-1.41882 -2.126431,-1.5832 -4.065487,-1.78185 -2.266655,-0.23224 -2.911021,-0.43097 -5.513651,-1.70047 -4.936719,-2.408 -8.069801,-7.55816 -8.094349,-13.30546 -0.02376,-5.56472 2.614603,-10.24044 7.344129,-13.01525 2.92823,-1.71799 4.977978,-2.19981 8.695059,-2.04391 2.775214,0.11638 3.545039,0.27581 5.314917,1.10051 4.304429,2.00571 6.911836,4.92491 8.424961,9.43244 1.750744,5.21537 0.436425,10.73125 -3.553824,14.9146 l -1.741452,1.82573 0.35902,1.7294 c 0.19746,0.95117 0.774505,2.57314 1.282318,3.6044 0.798226,1.621 0.867003,1.96126 0.507682,2.51181 -0.657606,1.00762 -1.747073,0.89775 -4.482682,-0.45205 z m 0.351691,-3.44846 c -0.417771,-1.37885 -0.814399,-3.50696 -0.821524,-4.40787 -0.006,-0.7872 0.295925,-1.24283 1.504665,-2.26906 1.803285,-1.53101 3.453434,-4.16495 4.077004,-6.50767 1.497781,-5.62712 -1.405995,-11.65336 -6.863085,-14.24307 -1.557904,-0.73932 -2.137936,-0.83108 -5.253733,-0.83108 -3.225996,0 -3.645008,0.0722 -5.307634,0.9147 -4.925342,2.49578 -7.879266,7.95023 -7.002168,12.92959 0.490973,2.78731 1.508843,4.65659 3.755316,6.8965 2.386432,2.37949 4.583998,3.34268 8.076867,3.54015 2.383279,0.13473 2.391572,0.13834 4.139306,1.81137 2.633762,2.52116 4.054933,3.35442 3.694986,2.16644 z m -8.603779,-8.45834 c -0.386833,-0.28305 -0.610285,-0.82931 -0.610285,-1.49192 0,-2.00304 2.616481,-2.63968 3.598699,-0.87562 0.437785,0.78625 0.437785,0.96499 0,1.75125 -0.56642,1.01728 -2.028412,1.31878 -2.988414,0.61629 z m 0.33027,-5.4868 c -0.499822,-1.30251 -1.204637,-8.8521 -0.890734,-9.54103 0.418013,-0.91743 1.75326,-1.24992 2.857878,-0.71165 0.850864,0.41462 0.859156,0.44993 0.768766,3.27363 -0.05031,1.56999 -0.265178,3.85749 -0.477619,5.08338 -0.355518,2.05157 -0.452646,2.23655 -1.221184,2.32568 -0.547309,0.0634 -0.904585,-0.0848 -1.037107,-0.43001 z m 60.367156,18.3715 c -0.30085,-0.19088 -0.38587,-1.10876 -0.31841,-3.4375 l 0.0921,-3.17711 -3.12965,-3.90234 c -3.25,-4.05242 -4.03455,-5.41574 -4.03455,-7.01101 0,-0.9743 1.92473,-7.1221 2.69036,-8.59332 0.23827,-0.45785 0.79251,-1.16806 1.23164,-1.57823 0.60331,-0.56351 0.85173,-1.2052 1.01664,-2.62602 0.2657,-2.28933 1.21796,-3.81268 2.7142,-4.34191 1.15191,-0.40746 3.05498,-0.25944 3.71905,0.28925 0.26872,0.22204 0.65748,0.13032 1.27363,-0.30046 1.89374,-1.32406 4.22215,-1.09354 5.6096,0.55535 0.66425,0.78942 0.94848,0.90446 1.86646,0.7555 1.42722,-0.23162 3.18856,0.5267 4.10618,1.76786 0.57577,0.77877 0.96486,0.98493 1.862,0.98659 1.28643,0.002 2.80535,0.87936 3.40988,1.96878 0.53953,0.97228 0.53192,2.68229 -0.0235,5.28966 -0.24987,1.17288 -0.5284,3.86839 -0.61896,5.99002 -0.18138,4.24926 -0.88606,6.98257 -2.37118,9.19724 -0.76239,1.13689 -0.87117,1.64965 -1.01328,4.77613 l -0.1592,3.50248 -1.14519,0.0959 -1.14517,0.0959 -0.20412,-3.43921 c -0.23813,-4.01195 -0.1314,-4.55497 1.25118,-6.36627 1.18448,-1.55175 2.03931,-4.16523 2.03931,-6.23476 v -1.42203 l -1.45704,-0.16423 c -0.97468,-0.10987 -1.73996,-0.4353 -2.31169,-0.98303 -0.61957,-0.59359 -0.98512,-0.73631 -1.32903,-0.51887 -1.13969,0.72056 -3.33651,0.12892 -4.56607,-1.22973 -0.55258,-0.6106 -0.64933,-0.61997 -1.62009,-0.15704 l -1.03242,0.49232 1.52616,1.42756 c 1.73123,1.61935 2.60498,3.53241 2.45442,5.37387 -0.0797,0.97624 -0.23336,1.24848 -0.70418,1.24848 -0.63711,0 -0.76394,-0.17743 -1.63018,-2.28077 -0.98534,-2.39251 -3.57425,-4.24036 -5.9565,-4.25147 -1.5995,-0.007 -2.04561,-0.40739 -1.58416,-1.42015 0.20895,-0.45859 0.37991,-1.18528 0.37991,-1.61484 0,-0.76315 0.0575,-0.78105 2.51359,-0.78105 2.33436,0 2.58411,-0.0658 3.5025,-0.92376 0.54388,-0.50808 0.98889,-1.21189 0.98889,-1.56406 0,-0.72164 -0.42834,-0.82724 -5.35701,-1.32056 -3.21668,-0.32195 -4.26259,-0.12136 -4.82255,0.92493 -0.88871,1.66058 -2.58573,7.18247 -2.41563,7.8602 0.10182,0.40564 1.5993,2.51029 3.32774,4.67698 1.72845,2.1667 3.32218,4.27493 3.54161,4.68497 0.28986,0.5416 0.34,1.65794 0.18331,4.08143 -0.11865,1.83474 -0.28972,3.45573 -0.38024,3.60218 -0.20962,0.33918 -1.43334,0.33679 -1.97028,-0.004 z m 18.67737,-20.21709 c 0.19516,-0.23514 0.60293,-1.88156 0.90621,-3.65874 0.51995,-3.04697 0.52037,-3.26223 0.007,-3.77501 -0.42873,-0.42873 -0.73014,-0.47855 -1.42443,-0.23544 -0.82736,0.28974 -0.91769,0.51379 -1.4935,3.70486 -0.50531,2.80042 -0.54037,3.48381 -0.19981,3.89416 0.50658,0.61039 1.72346,0.64914 2.20396,0.0703 z m -5.54866,-1.27112 c 0.72858,-0.53276 2.18793,-7.70828 1.73849,-8.54806 -0.66306,-1.23894 -2.6673,-0.92761 -2.99246,0.46484 -0.0909,0.38898 -0.36633,1.78185 -0.61223,3.09529 -0.2459,1.31343 -0.54391,2.76967 -0.66223,3.23609 -0.16002,0.63079 -0.0449,1.01824 0.44927,1.51244 0.77221,0.77223 1.27182,0.82974 2.07916,0.2394 z m -3.85307,-8.42243 c 0.30929,-2.30881 0.009,-2.93367 -1.41423,-2.93367 -1.17369,0 -1.76578,0.93581 -1.95525,3.0904 -0.16211,1.84324 -0.0138,1.98457 1.9869,1.89489 l 1.11443,-0.0499 z m -6.03357,1.02039 c 0.39409,-1.02695 0.19563,-2.76763 -0.36395,-3.19242 -1.30256,-0.98877 -2.43994,-0.14709 -2.7115,2.00657 -0.1487,1.17923 -0.0884,1.35101 0.51534,1.46908 1.52826,0.29885 2.37259,0.20544 2.56011,-0.28323 z m -42.02721,20.04278 c 0.296191,-7.0134 0.302915,-7.04116 1.804154,-7.44541 0.668916,-0.18012 1.761606,-0.35995 2.428186,-0.39965 l 1.21197,-0.0722 -0.0852,5.57215 c -0.0469,3.06467 -0.15342,5.87965 -0.23658,6.25548 -0.12405,0.56061 -0.51372,0.74649 -2.16957,1.03484 -3.506474,0.61061 -3.208521,1.10964 -2.952807,-4.94526 z m 7.33007,-2.10626 c 0.12501,-3.37115 0.35033,-6.25501 0.50071,-6.40857 0.15038,-0.15355 1.46599,-0.52986 2.92358,-0.83624 1.4576,-0.30637 5.06895,-1.09013 8.02525,-1.74167 3.93208,-0.86662 5.4366,-1.08513 5.60418,-0.81397 0.12601,0.20387 0.31943,1.97298 0.4298,3.93134 0.11036,1.95836 0.29447,4.71905 0.4091,6.1349 l 0.20842,2.57425 -1.84749,0.37102 c -2.8897,0.58034 -3.22393,0.51993 -3.45272,-0.62399 -0.10951,-0.54727 -0.19901,-1.67599 -0.19901,-2.50828 0,-1.61626 -0.51834,-2.37571 -1.39248,-2.04026 -0.42749,0.16403 -0.51797,0.72122 -0.51797,3.18957 0,1.64495 -0.10747,2.99447 -0.23881,2.99895 -0.13134,0.005 -2.31642,0.43308 -4.85573,0.95244 -2.5393,0.51938 -4.88854,0.94557 -5.22051,0.9471 -0.57954,0.002 -0.59454,-0.24147 -0.37632,-6.12659 z m -4.36678,-12.57713 c 0.0942,-2.75822 0.27218,-5.12621 0.39537,-5.26222 0.40876,-0.45126 17.93178,-4.73048 18.21426,-4.44801 0.28175,0.28176 0.95011,10.25413 0.71306,10.63969 -0.14185,0.23076 -1.06619,0.4465 -8.08545,1.88728 -2.5393,0.52123 -4.86767,1.02378 -5.17414,1.11678 -0.49662,0.15071 -0.55721,-0.0939 -0.55721,-2.25041 0,-1.90307 -0.10651,-2.46039 -0.49901,-2.61101 -0.97546,-0.37431 -1.29518,0.50049 -1.37513,3.76243 -0.0334,1.36228 -0.11685,1.50937 -1.03903,1.83084 -0.55153,0.19227 -1.39904,0.34957 -1.88341,0.34957 h -0.88068 z m 2.15091,-8.11941 c -0.083,-0.21892 -0.0428,-2.11714 0.0897,-4.21826 l 0.2405,-3.82027 1.22259,-0.3998 c 0.67243,-0.21989 1.35302,-0.31918 1.51244,-0.22066 0.33997,0.21011 0.37305,2.56366 0.0841,5.98195 l -0.20573,2.43399 -1.1475,0.31876 c -1.47336,0.40927 -1.61436,0.40332 -1.79598,-0.0757 z m 4.94703,-4.79195 c 0,-3.36226 0.0823,-4.01609 0.55721,-4.425 0.60052,-0.5171 8.58573,-2.6816 8.86448,-2.40285 0.27534,0.27534 0.70499,8.01582 0.46005,8.28807 -0.12388,0.1377 -0.75019,0.33555 -1.39179,0.43966 l -1.16656,0.18931 v -1.75392 c 0,-1.84972 -0.47298,-2.63377 -1.37912,-2.28606 -0.3816,0.14643 -0.52726,0.74441 -0.59756,2.45337 l -0.0931,2.25973 -1.47621,0.37557 c -0.81192,0.20655 -1.994,0.47271 -2.62687,0.59143 l -1.15066,0.21586 z m -3.0538,-6.0741 c -0.10723,-0.2793 -0.0358,-2.551678 0.15858,-5.049739 0.19441,-2.498079 0.43014,-5.544942 0.52389,-6.770804 0.0938,-1.225881 0.25172,-2.69454 0.35109,-3.263694 l 0.18066,-1.034828 h 4.39429 4.39431 l 0.18477,1.19404 c 0.10161,0.656707 0.33335,3.056719 0.51494,5.333339 0.18162,2.276611 0.41411,4.805015 0.51667,5.618659 0.15898,1.261157 0.099,1.505705 -0.40737,1.658036 -1.99515,0.600353 -5.41885,1.479521 -5.76158,1.479521 -0.26744,0 -0.40441,-0.488653 -0.40441,-1.442826 0,-1.029212 -0.14612,-1.498911 -0.50974,-1.638443 -0.71617,-0.274813 -1.07174,0.446932 -1.07742,2.186869 -0.006,1.67752 -0.029,1.70583 -1.6756,2.01473 -0.93387,0.1752 -1.22994,0.1142 -1.38308,-0.28486 z m 2.73538,-19.207659 c -1.19145,-0.430687 -2.90942,-2.536093 -3.37432,-4.135268 -0.54874,-1.887626 -0.30783,-3.277106 1.0239,-5.905151 0.86521,-1.707411 1.23471,-1.882178 1.52595,-0.721751 0.28759,1.145803 0.64905,0.993169 1.69663,-0.716418 1.06545,-1.738765 1.67512,-3.349501 1.67512,-4.42563 0,-1.009452 0.45549,-0.942258 1.25866,0.18568 0.94135,1.322032 1.60701,3.375466 1.60701,4.957413 0,0.844723 0.18895,1.510635 0.50247,1.770835 0.42994,0.356799 0.6192,0.267887 1.31074,-0.61573 0.75118,-0.959842 0.83613,-0.992148 1.20337,-0.45763 0.21731,0.316313 0.57445,1.332883 0.79364,2.259046 0.68457,2.892702 -0.53195,5.929084 -2.97148,7.416627 -1.34712,0.821432 -1.49908,0.773413 -1.10748,-0.349946 0.18422,-0.528466 0.23777,-1.348077 0.11903,-1.821359 -0.30826,-1.22813 -2.16493,-4.203028 -2.62988,-4.213751 -0.21537,-0.0049 -0.83126,0.74321 -1.36862,1.662613 -0.97771,1.67276 -1.12561,3.176471 -0.46979,4.776127 0.23273,0.567625 0.0561,0.641908 -0.79491,0.334293 z"
         id="path1"
         inkscape:export-filename="editorial.svg"
         inkscape:export-xdpi="96"
         inkscape:export-ydpi="96" /></g></g></svg>
